HIERARCHY
ROOT hip
{
  OFFSET 0 0 0
  CHANNELS 6 Xposition Yposition Zposition Zrotation Yrotation Xrotation
  JOINT abdomen
  {
    OFFSET 0 20.6881 -0.73152
    CHANNELS 3 Zrotation Xrotation Yrotation
    JOINT chest
    {
      OFFSET 0 11.7043 -0.48768
      CHANNELS 3 Zrotation Xrotation Yrotation
      JOINT neck
      {
        OFFSET 0 22.1894 -2.19456
        CHANNELS 3 Zrotation Xrotation Yrotation
        JOINT head
        {
          OFFSET -0.24384 7.07133 1.2192
          CHANNELS 3 Zrotation Xrotation Yrotation
          JOINT leftEye
          {
            OFFSET 4.14528 8.04674 8.04672
            CHANNELS 3 Zrotation Xrotation Yrotation
            End Site
            {
              OFFSET 1 0 0
            }
          }
          JOINT rightEye
          {
            OFFSET -3.6576 8.04674 8.04672
            CHANNELS 3 Zrotation Xrotation Yrotation
            End Site
            {
              OFFSET 1 0 0
            }
          }
        }
      }
      JOINT rCollar
      {
        OFFSET -2.68224 19.2634 -4.8768
        CHANNELS 3 Zrotation Xrotation Yrotation
        JOINT rShldr
        {
          OFFSET -8.77824 -1.95073 1.46304
          CHANNELS 3 Zrotation Xrotation Yrotation
          JOINT rForeArm
          {
            OFFSET -28.1742 -1.7115 0.48768
            CHANNELS 3 Zrotation Xrotation Yrotation
            JOINT rHand
            {
              OFFSET -22.5879 0.773209 7.07136
              CHANNELS 3 Zrotation Xrotation Yrotation
              JOINT rThumb1
              {
                OFFSET -1.2192 -0.487915 3.41376
                CHANNELS 3 Zrotation Xrotation Yrotation
                JOINT rThumb2
                {
                  OFFSET -3.37035 -0.52449 3.41376
                  CHANNELS 3 Zrotation Xrotation Yrotation
                  End Site
                  {
                    OFFSET -1.78271 -1.18214 1.43049
                  }
                }
              }
              JOINT rIndex1
              {
                OFFSET -7.75947 0.938293 5.60832
                CHANNELS 3 Zrotation Xrotation Yrotation
                JOINT rIndex2
                {
                  OFFSET -2.54057 -0.884171 1.56538
                  CHANNELS 3 Zrotation Xrotation Yrotation
                  End Site
                  {
                    OFFSET -1.62519 -0.234802 1.16502
                  }
                }
              }
              JOINT rMid1
              {
                OFFSET -8.24714 1.18213 3.41376
                CHANNELS 3 Zrotation Xrotation Yrotation
                JOINT rMid2
                {
                  OFFSET -3.10165 -0.590103 1.0647
                  CHANNELS 3 Zrotation Xrotation Yrotation
                  End Site
                  {
                    OFFSET -2.48547 -0.328903 0.83742
                  }
                }
              }
              JOINT rRing1
              {
                OFFSET -8.82822 0.546677 1.51678
                CHANNELS 3 Zrotation Xrotation Yrotation
                JOINT rRing2
                {
                  OFFSET -2.60934 -0.819778 -0.0198488
                  CHANNELS 3 Zrotation Xrotation Yrotation
                  End Site
                  {
                    OFFSET -2.33842 -0.294052 0.168128
                  }
                }
              }
              JOINT rPinky1
              {
                OFFSET -8.27202 -0.0477905 -0.4584
                CHANNELS 3 Zrotation Xrotation Yrotation
                JOINT rPinky2
                {
                  OFFSET -1.82734 -0.647385 -0.700984
                  CHANNELS 3 Zrotation Xrotation Yrotation
                  End Site
                  {
                    OFFSET -1.69225 -0.51767 -0.607171
                  }
                }
              }
            }
          }
        }
      }
      JOINT lCollar
      {
        OFFSET 2.68224 19.2634 -4.8768
        CHANNELS 3 Zrotation Xrotation Yrotation
        JOINT lShldr
        {
          OFFSET 8.77824 -1.95073 1.46304
          CHANNELS 3 Zrotation Xrotation Yrotation
          JOINT lForeArm
          {
            OFFSET 28.1742 -1.7115 0.48768
            CHANNELS 3 Zrotation Xrotation Yrotation
            JOINT lHand
            {
              OFFSET 22.5879 0.773209 7.07136
              CHANNELS 3 Zrotation Xrotation Yrotation
              JOINT lThumb1
              {
                OFFSET 1.2192 -0.487915 3.41376
                CHANNELS 3 Zrotation Xrotation Yrotation
                JOINT lThumb2
                {
                  OFFSET 3.37035 -0.52449 3.41376
                  CHANNELS 3 Zrotation Xrotation Yrotation
                  End Site
                  {
                    OFFSET 1.78271 -1.18214 1.43049
                  }
                }
              }
              JOINT lIndex1
              {
                OFFSET 7.75947 0.938293 5.60832
                CHANNELS 3 Zrotation Xrotation Yrotation
                JOINT lIndex2
                {
                  OFFSET 2.54057 -0.884171 1.56538
                  CHANNELS 3 Zrotation Xrotation Yrotation
                  End Site
                  {
                    OFFSET 1.62519 -0.234802 1.16502
                  }
                }
              }
              JOINT lMid1
              {
                OFFSET 8.24714 1.18213 3.41376
                CHANNELS 3 Zrotation Xrotation Yrotation
                JOINT lMid2
                {
                  OFFSET 3.10165 -0.590103 1.0647
                  CHANNELS 3 Zrotation Xrotation Yrotation
                  End Site
                  {
                    OFFSET 2.48547 -0.328903 0.83742
                  }
                }
              }
              JOINT lRing1
              {
                OFFSET 8.82822 0.546677 1.51678
                CHANNELS 3 Zrotation Xrotation Yrotation
                JOINT lRing2
                {
                  OFFSET 2.60934 -0.819778 -0.0198488
                  CHANNELS 3 Zrotation Xrotation Yrotation
                  End Site
                  {
                    OFFSET 2.33842 -0.294052 0.168128
                  }
                }
              }
              JOINT lPinky1
              {
                OFFSET 8.27202 -0.0477905 -0.4584
                CHANNELS 3 Zrotation Xrotation Yrotation
                JOINT lPinky2
                {
                  OFFSET 1.82734 -0.647385 -0.700984
                  CHANNELS 3 Zrotation Xrotation Yrotation
                  End Site
                  {
                    OFFSET 1.69225 -0.51767 -0.607171
                  }
                }
              }
            }
          }
        }
      }
    }
  }
  JOINT rButtock
  {
    OFFSET -8.77824 4.35084 1.2192
    CHANNELS 3 Zrotation Xrotation Yrotation
    JOINT rThigh
    {
      OFFSET 0 -1.70687 -2.19456
      CHANNELS 3 Zrotation Xrotation Yrotation
      JOINT rShin
      {
        OFFSET 0 -36.8199 0.73152
        CHANNELS 3 Zrotation Xrotation Yrotation
        JOINT rFoot
        {
          OFFSET 0.73152 -45.1104 -5.12064
          CHANNELS 3 Zrotation Xrotation Yrotation
          End Site
          {
            OFFSET -1.1221 -3.69964 12.103
          }
        }
      }
    }
  }
  JOINT lButtock
  {
    OFFSET 8.77824 4.35084 1.2192
    CHANNELS 3 Zrotation Xrotation Yrotation
    JOINT lThigh
    {
      OFFSET 0 -1.70687 -2.19456
      CHANNELS 3 Zrotation Xrotation Yrotation
      JOINT lShin
      {
        OFFSET 0 -36.8199 0.73152
        CHANNELS 3 Zrotation Xrotation Yrotation
        JOINT lFoot
        {
          OFFSET -0.73152 -45.1104 -5.12064
          CHANNELS 3 Zrotation Xrotation Yrotation
          End Site
          {
            OFFSET 1.1221 -3.69964 12.103
          }
        }
      }
    }
  }
}
MOTION
Frames:	4
Frame Time:	0.03333
-5.062180070672184 71.71800136566162 122.8125000372529 1.7520638704299927 13.548394203186035 -4.702009201049805 -11.410480499267578 11.374210357666016 0.26362374424934387 5.384802341461182 -10.365077018737793 0.2914014458656311 -7.455855369567871 10.077192306518555 -6.274616241455078 10.488402366638184 -14.75888729095459 -10.193199157714844 -0.0 0.0 -0.0 -0.0 0.0 -0.0 -0.0 0.0 -0.0 51.31499481201172 45.8152961730957 39.842098236083984 -27.161205291748047 -26.9254093170166 62.323097229003906 -11.100707054138184 -64.82742309570312 -17.40252685546875 -0.0 0.0 -0.0 -0.0 0.0 -0.0 -0.0 0.0 -0.0 7.730876445770264 5.474895000457764 0.41732463240623474 -0.0 0.0 -0.0 2.9054994583129883 0.9650753736495972 0.10300876200199127 -0.0 0.0 -0.0 10.278595924377441 0.7317469120025635 0.026285577565431595 -0.0 0.0 -0.0 2.221662759780884 -0.7335850596427917 -0.20831839740276337 -0.0 0.0 -0.0 -20.635988235473633 25.12728500366211 -103.42400360107422 28.237606048583984 -32.51340103149414 -71.38909912109375 2.240067958831787 -38.609745025634766 6.4313273429870605 -0.0 0.0 -0.0 -0.0 0.0 -0.0 -0.0 0.0 -0.0 -7.730876445770264 5.474895000457764 -0.41732463240623474 -0.0 0.0 -0.0 -2.9054994583129883 0.9650753736495972 -0.10300876200199127 -0.0 0.0 -0.0 -10.278595924377441 0.7317469120025635 -0.026285577565431595 -0.0 0.0 -0.0 -2.221662759780884 -0.7335850596427917 0.20831839740276337 -0.0 0.0 -0.0 -23.349088668823242 -59.319793701171875 -21.631486892700195 -3.3575432300567627 76.18916320800781 3.8854315280914307 -1.6085224151611328 2.3951635360717773 -10.151110649108887 -0.0 0.0 -0.0 -1.6343121528625488 -33.727394104003906 12.744519233703613 1.4366282224655151 67.40159606933594 -2.7805936336517334 9.486235618591309 -14.170001983642578 22.937597274780273
-5.176690069492906 72.20849990844727 125.73840003460646 1.5419272184371948 15.15311336517334 -5.559985637664795 -11.165294647216797 11.576809883117676 0.376911461353302 5.510353088378906 -10.558951377868652 0.35941681265830994 -8.09177017211914 10.219592094421387 -6.834147930145264 11.106891632080078 -13.437894821166992 -11.264300346374512 -0.0 0.0 -0.0 -0.0 0.0 -0.0 -0.0 0.0 -0.0 49.30099105834961 43.77869415283203 41.4680061340332 -27.741703033447266 -29.24639320373535 66.04769897460938 -10.136282920837402 -63.4420051574707 -16.330047607421875 -0.0 0.0 -0.0 -0.0 0.0 -0.0 -0.0 0.0 -0.0 7.730876445770264 5.474895000457764 0.41732463240623474 -0.0 0.0 -0.0 2.9054994583129883 0.9650753736495972 0.10300876200199127 -0.0 0.0 -0.0 10.278595924377441 0.7317469120025635 0.026285577565431595 -0.0 0.0 -0.0 2.221662759780884 -0.7335850596427917 -0.20831839740276337 -0.0 0.0 -0.0 -16.66831398010254 27.97399139404297 -103.78400421142578 28.403396606445312 -34.36199188232422 -74.29339599609375 1.6411044597625732 -33.79810333251953 5.398204326629639 -0.0 0.0 -0.0 -0.0 0.0 -0.0 -0.0 0.0 -0.0 -7.730876445770264 5.474895000457764 -0.41732463240623474 -0.0 0.0 -0.0 -2.9054994583129883 0.9650753736495972 -0.10300876200199127 -0.0 0.0 -0.0 -10.278595924377441 0.7317469120025635 -0.026285577565431595 -0.0 0.0 -0.0 -2.221662759780884 -0.7335850596427917 0.20831839740276337 -0.0 0.0 -0.0 -23.54286766052246 -58.868099212646484 -20.15196418762207 -2.0222723484039307 69.79579162597656 2.4760565757751465 -0.6207544803619385 6.197360515594482 -5.1363749504089355 -0.0 0.0 -0.0 -1.2927364110946655 -30.242996215820312 11.534586906433105 1.2956022024154663 66.38239288330078 -2.77701997756958 10.125293731689453 -15.24909782409668 23.283296585083008
-5.255040072370321 72.6885974407196 128.6531999707222 1.446492314338684 16.778976440429688 -6.381082534790039 -10.923415184020996 11.58779525756836 0.29462119936943054 5.654186248779297 -10.36302375793457 0.35466718673706055 -8.576910972595215 10.151412010192871 -7.3264360427856445 11.49738883972168 -11.795303344726562 -12.261610984802246 -0.0 0.0 -0.0 -0.0 0.0 -0.0 -0.0 0.0 -0.0 45.59709548950195 41.150299072265625 44.714595794677734 -28.26909637451172 -32.24660110473633 70.56729888916016 -9.124933242797852 -61.72311782836914 -15.179039001464844 -0.0 0.0 -0.0 -0.0 0.0 -0.0 -0.0 0.0 -0.0 7.730876445770264 5.474895000457764 0.41732463240623474 -0.0 0.0 -0.0 2.9054994583129883 0.9650753736495972 0.10300876200199127 -0.0 0.0 -0.0 10.278595924377441 0.7317469120025635 0.026285577565431595 -0.0 0.0 -0.0 2.221662759780884 -0.7335850596427917 -0.20831839740276337 -0.0 0.0 -0.0 -12.302209854125977 32.20969009399414 -103.02598571777344 28.466190338134766 -37.34881591796875 -78.87639617919922 1.1719735860824585 -29.42230224609375 4.5395026206970215 -0.0 0.0 -0.0 -0.0 0.0 -0.0 -0.0 0.0 -0.0 -7.730876445770264 5.474895000457764 -0.41732463240623474 -0.0 0.0 -0.0 -2.9054994583129883 0.9650753736495972 -0.10300876200199127 -0.0 0.0 -0.0 -10.278595924377441 0.7317469120025635 -0.026285577565431595 -0.0 0.0 -0.0 -2.221662759780884 -0.7335850596427917 0.20831839740276337 -0.0 0.0 -0.0 -23.62409782409668 -57.5973014831543 -18.2855167388916 -1.2892234325408936 62.84688186645508 1.6887943744659424 -0.4753856658935547 10.631014823913574 -0.28852131962776184 -0.0 0.0 -0.0 -0.9319252371788025 -26.71759605407715 10.351105690002441 1.166420578956604 65.1701889038086 -2.7338595390319824 10.74963665008545 -16.188196182250977 23.65180778503418
-5.372820072807372 73.13389778137207 131.59459996968508 1.3622814416885376 18.482988357543945 -7.1700592041015625 -10.668511390686035 11.51888656616211 0.03187005966901779 5.859464168548584 -10.029001235961914 0.2981218099594116 -8.945260047912598 10.0217866897583 -7.71757698059082 11.67349910736084 -10.163206100463867 -13.092904090881348 -0.0 0.0 -0.0 -0.0 0.0 -0.0 -0.0 0.0 -0.0 40.47509765625 37.410797119140625 49.261993408203125 -28.428007125854492 -35.11188507080078 75.53048706054688 -7.3664140701293945 -58.26497268676758 -13.14843463897705 -0.0 0.0 -0.0 -0.0 0.0 -0.0 -0.0 0.0 -0.0 7.730876445770264 5.474895000457764 0.41732463240623474 -0.0 0.0 -0.0 2.9054994583129883 0.9650753736495972 0.10300876200199127 -0.0 0.0 -0.0 10.278595924377441 0.7317469120025635 0.026285577565431595 -0.0 0.0 -0.0 2.221662759780884 -0.7335850596427917 -0.20831839740276337 -0.0 0.0 -0.0 -8.316081047058105 38.42409896850586 -101.26399993896484 28.02599334716797 -40.27539825439453 -84.41668701171875 0.9668871760368347 -26.757896423339844 4.063583850860596 -0.0 0.0 -0.0 -0.0 0.0 -0.0 -0.0 0.0 -0.0 -7.730876445770264 5.474895000457764 -0.41732463240623474 -0.0 0.0 -0.0 -2.9054994583129883 0.9650753736495972 -0.10300876200199127 -0.0 0.0 -0.0 -10.278595924377441 0.7317469120025635 -0.026285577565431595 -0.0 0.0 -0.0 -2.221662759780884 -0.7335850596427917 0.20831839740276337 -0.0 0.0 -0.0 -23.45010757446289 -55.71240234375 -15.89339828491211 -0.8504207730293274 55.63319396972656 1.1910494565963745 -1.117319107055664 15.450712203979492 3.9167590141296387 -0.0 0.0 -0.0 -0.409788578748703 -23.1427059173584 9.364962577819824 1.0447288751602173 63.782691955566406 -2.661919355392456 11.369985580444336 -17.018192291259766 24.061899185180664
